<svg width="24" height="24" viewBox="0 0 24 24" fill="none" xmlns="http://www.w3.org/2000/svg">
<path d="M18 20C18.5304 20 19.0391 19.7893 19.4142 19.4142C19.7893 19.0391 20 18.5304 20 18V5.99999C20 5.46956 19.7893 4.96085 19.4142 4.58577C19.0391 4.2107 18.5304 3.99999 18 3.99999M4 6.84799V17.152C4 18.745 4 19.542 4.465 20.098C4.929 20.653 5.715 20.796 7.285 21.081L10.285 21.625C12.47 22.022 13.563 22.22 14.281 21.622C15 21.023 15 19.914 15 17.697V6.30299C15 4.08599 15 2.97699 14.281 2.37799C13.563 1.77999 12.471 1.97799 10.284 2.37499L7.284 2.91899C5.714 3.20399 4.929 3.34699 4.464 3.90199C4 4.45799 4 5.25499 4 6.84799Z" stroke="#475569" stroke-width="1.5" stroke-linecap="round" stroke-linejoin="round"/>
<path d="M11.5 11.998V11.988" stroke="#475569" stroke-width="2" stroke-linecap="round" stroke-linejoin="round"/>
</svg>
