<svg width="18" height="22" viewBox="0 0 18 22" fill="none" xmlns="http://www.w3.org/2000/svg">
<path d="M15 19C15.5304 19 16.0391 18.7893 16.4142 18.4142C16.7893 18.0391 17 17.5304 17 17V4.99999C17 4.46956 16.7893 3.96085 16.4142 3.58577C16.0391 3.2107 15.5304 2.99999 15 2.99999M1 5.84799V16.152C1 17.745 1 18.542 1.465 19.098C1.929 19.653 2.715 19.796 4.285 20.081L7.285 20.625C9.47 21.022 10.563 21.22 11.281 20.622C12 20.023 12 18.914 12 16.697V5.30299C12 3.08599 12 1.97699 11.281 1.37799C10.563 0.779988 9.471 0.977988 7.284 1.37499L4.284 1.91899C2.714 2.20399 1.929 2.34699 1.464 2.90199C1 3.45799 1 4.25499 1 5.84799Z" stroke="white" stroke-width="1.5" stroke-linecap="round" stroke-linejoin="round"/>
<path d="M8.5 10.998V10.988" stroke="white" stroke-width="2" stroke-linecap="round" stroke-linejoin="round"/>
</svg>
