<svg width="21" height="22" viewBox="0 0 21 22" fill="none" xmlns="http://www.w3.org/2000/svg">
<path d="M7.2501 14.75L14.7501 7.25M10.7271 1.25L13.3791 2.84L16.4586 3.1115L17.6691 5.957L20.0001 7.985L19.3071 11L20.0001 14.0135L17.6691 16.043L16.4586 18.8885L13.3791 19.16L10.7271 20.75L8.0766 19.16L4.9956 18.8885L3.7866 16.043L1.4541 14.0135L2.1471 11L1.4541 7.9865L3.7866 5.957L4.9956 3.1115L8.0766 2.84L10.7271 1.25ZM9.5001 8.75C9.5001 9.14782 9.34207 9.52936 9.06076 9.81066C8.77946 10.092 8.39793 10.25 8.0001 10.25C7.60228 10.25 7.22075 10.092 6.93944 9.81066C6.65814 9.52936 6.5001 9.14782 6.5001 8.75C6.5001 8.35218 6.65814 7.97064 6.93944 7.68934C7.22075 7.40804 7.60228 7.25 8.0001 7.25C8.39793 7.25 8.77946 7.40804 9.06076 7.68934C9.34207 7.97064 9.5001 8.35218 9.5001 8.75ZM15.5001 14C15.5001 14.3978 15.3421 14.7794 15.0608 15.0607C14.7795 15.342 14.3979 15.5 14.0001 15.5C13.6023 15.5 13.2207 15.342 12.9394 15.0607C12.6581 14.7794 12.5001 14.3978 12.5001 14C12.5001 13.6022 12.6581 13.2206 12.9394 12.9393C13.2207 12.658 13.6023 12.5 14.0001 12.5C14.3979 12.5 14.7795 12.658 15.0608 12.9393C15.3421 13.2206 15.5001 13.6022 15.5001 14Z" stroke="white"/>
</svg>
