<svg width="21" height="22" viewBox="0 0 21 22" fill="none" xmlns="http://www.w3.org/2000/svg">
<path d="M7.24998 14.75L14.75 7.25M10.727 1.25L13.379 2.84L16.4585 3.1115L17.669 5.957L20 7.985L19.307 11L20 14.0135L17.669 16.043L16.4585 18.8885L13.379 19.16L10.727 20.75L8.07648 19.16L4.99548 18.8885L3.78648 16.043L1.45398 14.0135L2.14698 11L1.45398 7.9865L3.78648 5.957L4.99548 3.1115L8.07648 2.84L10.727 1.25ZM9.49998 8.75C9.49998 9.14782 9.34194 9.52936 9.06064 9.81066C8.77934 10.092 8.3978 10.25 7.99998 10.25C7.60215 10.25 7.22062 10.092 6.93932 9.81066C6.65802 9.52936 6.49998 9.14782 6.49998 8.75C6.49998 8.35218 6.65802 7.97064 6.93932 7.68934C7.22062 7.40804 7.60215 7.25 7.99998 7.25C8.3978 7.25 8.77934 7.40804 9.06064 7.68934C9.34194 7.97064 9.49998 8.35218 9.49998 8.75ZM15.5 14C15.5 14.3978 15.3419 14.7794 15.0606 15.0607C14.7793 15.342 14.3978 15.5 14 15.5C13.6022 15.5 13.2206 15.342 12.9393 15.0607C12.658 14.7794 12.5 14.3978 12.5 14C12.5 13.6022 12.658 13.2206 12.9393 12.9393C13.2206 12.658 13.6022 12.5 14 12.5C14.3978 12.5 14.7793 12.658 15.0606 12.9393C15.3419 13.2206 15.5 13.6022 15.5 14Z" stroke="#475569"/>
</svg>
