<svg width="24" height="24" viewBox="0 0 24 24" fill="none" xmlns="http://www.w3.org/2000/svg">
<g clip-path="url(#clip0_175_874)">
<path d="M14.3166 9.09771C14.1781 8.70815 13.9226 8.37092 13.585 8.13218C13.2475 7.89343 12.8444 7.76484 12.4309 7.764H10.8829C10.4413 7.76169 10.0145 7.92321 9.68505 8.21735C9.35561 8.51148 9.14694 8.91732 9.09938 9.35639C9.05183 9.79546 9.16877 10.2366 9.4276 10.5944C9.68643 10.9523 10.0688 11.2014 10.5006 11.2937L12.8578 11.808C13.3398 11.9135 13.7657 12.1934 14.0539 12.5939C14.342 12.9944 14.472 13.4873 14.4189 13.9778C14.3657 14.4683 14.1332 14.9219 13.7659 15.2514C13.3987 15.5809 12.9226 15.763 12.4292 15.7629H11.0972C10.2264 15.7629 9.48578 15.2074 9.2115 14.4309M11.7641 7.764V5.76343M11.7641 17.7634V15.7646M3.42578 23.1411V18.8554H7.7115" stroke="#475569" stroke-width="1.25" stroke-linecap="round" stroke-linejoin="round"/>
<path d="M22.9512 9.94971C23.4063 12.3758 23.0429 14.8843 21.9181 17.0816C20.7934 19.2788 18.9709 21.0404 16.7367 22.0898C14.5025 23.1392 11.983 23.4171 9.57383 22.8798C7.16462 22.3425 5.00202 21.0205 3.42544 19.1211M1.04944 14.0503C0.594337 11.6242 0.957683 9.11568 2.08245 6.91844C3.20721 4.7212 5.02972 2.95962 7.26392 1.91019C9.49813 0.860761 12.0176 0.58289 14.4268 1.12019C16.836 1.65749 18.9986 2.97955 20.5752 4.87886" stroke="#475569" stroke-width="1.25" stroke-linecap="round" stroke-linejoin="round"/>
<path d="M20.5748 0.860565V5.14628H16.2891" stroke="#475569" stroke-width="1.25" stroke-linecap="round" stroke-linejoin="round"/>
</g>
<defs>
<clipPath id="clip0_175_874">
<rect width="24" height="24" fill="white"/>
</clipPath>
</defs>
</svg>
