<svg width="39" height="39" viewBox="0 0 39 39" fill="none" xmlns="http://www.w3.org/2000/svg">
<path d="M15.1997 11.3447C13.6963 10.5605 12.229 10.299 11.3027 10.9566C10.6482 11.4227 10.3588 12.2911 10.3448 13.3417C8.82104 11.8756 7.58853 10.1345 6.71229 8.21011V1.21875H3.92074V8.21255H3.93476C3.45396 9.86761 3.04324 11.8085 3.0469 13.6323C3.05177 17.313 5.93412 19.1655 8.27899 19.1655C8.31251 19.1655 8.34298 19.1581 8.37649 19.1575C8.76823 19.1537 9.15699 19.0889 9.52882 18.9656L9.55015 18.957C9.93467 18.8236 10.2796 18.6298 10.5544 18.3605C10.5544 18.3605 10.1473 18.0735 9.54162 17.4903C9.92126 17.5177 10.3369 17.5086 10.7518 17.4635C11.0693 18.9638 11.7561 20.5695 12.3027 21.3105L24.3037 37.7812H27.2342L16.3751 21.996C17.2143 21.9771 18.0247 21.6462 18.7767 21.1112C20.6322 19.7937 21.433 17.7712 19.316 14.8913C18.8249 14.2332 18.2686 13.6264 17.6554 13.0802C18.4007 13.5531 19.3148 14.3374 20.3093 15.6286C24.0252 20.4445 35.9531 36.9172 35.9531 36.9172V34.7569C35.9531 34.7569 25.0405 19.7334 21.3141 14.9023C18.7456 11.572 16.2198 10.828 15.1997 11.3447ZM5.90365 16.1332C6.50693 17.6566 8.9944 18.3806 8.9944 18.3806C7.4149 19.2684 3.51368 17.135 3.50881 13.6317C3.50637 11.8182 3.92866 9.86334 4.41677 8.21194H5.14741C6.6611 13.4215 10.3436 14.7676 10.3436 14.7676C8.78599 14.7676 6.95848 14.3002 6.95848 14.3002C8.50568 16.0717 11.8 16.4239 11.8 16.4239C8.91579 17.0527 5.90365 16.1332 5.90365 16.1332ZM18.6298 15.1789C20.528 17.7584 19.72 19.2124 19.1009 19.6523C18.483 20.0917 18.5342 19.1764 16.636 16.5957C14.7365 14.0168 11.9511 11.7232 12.5702 11.2838C13.1887 10.8457 16.7316 12.5994 18.6298 15.1789ZM34.3359 14.146C34.4711 14.3636 35.9531 16.9644 35.9531 16.965V14.4062C35.9531 14.4062 35.5473 13.7384 35.4078 13.5178C33.8008 10.9493 31.6814 9.53611 30.4176 9.46725C30.1306 9.45384 29.913 9.50991 29.7521 9.58912C28.4249 8.77683 27.1014 8.4435 26.1946 8.97975C25.1246 9.61228 24.8674 11.3094 25.1745 13.1905C24.7839 14.8121 25.6114 17.7858 26.2958 18.9028L35.9531 34.1555V29.9368L30.1629 19.8772C30.9447 19.9119 31.7253 19.6621 32.4681 19.2233C34.3389 18.1167 35.2676 16.2587 33.4882 13.3526C33.1169 12.7548 32.6918 12.192 32.2183 11.6714C32.8764 12.2119 33.6217 13.0059 34.3359 14.146ZM32.8953 17.8626C32.2731 18.2301 32.3968 17.3635 30.8027 14.7615C29.2086 12.1595 26.7491 9.75853 27.3713 9.39047C27.9947 9.0218 31.2189 10.97 32.8118 13.572C34.4072 16.1746 33.5217 17.4933 32.8953 17.8626Z" fill="white"/>
<path d="M8.92305 25.6389L8.93159 25.6498C7.40937 24.9819 5.94991 24.8205 5.10288 25.5273C4.15165 26.3232 4.18029 28.041 4.79454 29.8484C4.67998 31.5108 5.98709 34.3096 6.84752 35.3023L8.85602 37.7813H12.1363L10.5056 35.6673C11.4032 35.6545 12.2411 35.2578 12.9894 34.632C14.6524 33.2408 15.2606 31.2579 13.0241 28.6766C12.5494 28.1281 11.9913 27.6102 11.3947 27.1446C12.129 27.5645 13.0345 28.2537 13.9967 29.3256C15.8413 31.3816 21.3184 37.7813 21.3184 37.7813H22.9125C22.9125 37.7813 16.7986 30.5961 14.9431 28.5297C12.728 26.0618 10.087 24.7918 8.92305 25.6389ZM12.3947 29.0008C14.3977 31.314 13.7408 32.7564 13.1875 33.2219C12.6329 33.6838 12.6116 32.8094 10.6074 30.4962C8.60435 28.183 5.78112 26.2092 6.33321 25.7443C6.88652 25.2805 10.3904 26.6888 12.3947 29.0008Z" fill="white"/>
</svg>
