<svg width="37" height="28" viewBox="0 0 37 28" fill="none" xmlns="http://www.w3.org/2000/svg">
<path d="M25.6667 23.4583V27.0417H0.583374V23.4583C0.583374 23.4583 0.583374 16.2917 13.125 16.2917C25.6667 16.2917 25.6667 23.4583 25.6667 23.4583ZM19.3959 6.43749C19.3959 5.19724 19.0281 3.98484 18.339 2.95361C17.65 1.92237 16.6706 1.11862 15.5248 0.644C14.3789 0.169376 13.1181 0.0451925 11.9017 0.287154C10.6852 0.529115 9.56788 1.12635 8.69089 2.00335C7.8139 2.88034 7.21666 3.99769 6.9747 5.21412C6.73274 6.43054 6.85692 7.69139 7.33155 8.83724C7.80617 9.98308 8.60992 10.9625 9.64115 11.6515C10.6724 12.3406 11.8848 12.7083 13.125 12.7083C14.7882 12.7083 16.3832 12.0477 17.5592 10.8716C18.7352 9.69563 19.3959 8.10062 19.3959 6.43749ZM25.5592 16.2917C26.6606 17.144 27.5619 18.2274 28.1995 19.4656C28.8372 20.7038 29.1958 22.0667 29.25 23.4583V27.0417H36.4167V23.4583C36.4167 23.4583 36.4167 16.9546 25.5592 16.2917ZM23.875 0.166661C22.642 0.160926 21.4362 0.52953 20.4171 1.22374C21.5055 2.7444 22.0906 4.56751 22.0906 6.43749C22.0906 8.30748 21.5055 10.1306 20.4171 11.6512C21.4362 12.3455 22.642 12.7141 23.875 12.7083C25.5382 12.7083 27.1332 12.0477 28.3092 10.8716C29.4852 9.69563 30.1459 8.10062 30.1459 6.43749C30.1459 4.77437 29.4852 3.17936 28.3092 2.00335C27.1332 0.827337 25.5382 0.166661 23.875 0.166661Z" fill="white"/>
</svg>
