<svg width="38" height="38" viewBox="0 0 38 38" fill="none" xmlns="http://www.w3.org/2000/svg">
<path d="M23.1073 0.154999L28.6723 7.953L32.342 6.70175L35.6915 16.5H37.375V37.5H0.625V16.5H1.5175V16.4825L2.6515 16.493L23.1073 0.154999ZM14.4448 16.5H31.9937L30.179 11.1922L27.5155 12.0445L14.4448 16.5ZM11.7183 13.7297L25.2125 9.1325L22.4055 5.195L11.7183 13.7297ZM7.625 20H4.125V23.5C5.05326 23.5 5.9435 23.1312 6.59987 22.4749C7.25625 21.8185 7.625 20.9283 7.625 20ZM25.125 27C25.125 26.1957 24.9666 25.3992 24.6588 24.6561C24.351 23.9129 23.8998 23.2377 23.331 22.669C22.7623 22.1002 22.0871 21.649 21.3439 21.3412C20.6008 21.0334 19.8043 20.875 19 20.875C18.1957 20.875 17.3992 21.0334 16.6561 21.3412C15.9129 21.649 15.2377 22.1002 14.669 22.669C14.1002 23.2377 13.649 23.9129 13.3412 24.6561C13.0334 25.3992 12.875 26.1957 12.875 27C12.875 28.6245 13.5203 30.1824 14.669 31.331C15.8176 32.4797 17.3755 33.125 19 33.125C20.6245 33.125 22.1824 32.4797 23.331 31.331C24.4797 30.1824 25.125 28.6245 25.125 27ZM33.875 34V30.5C32.9467 30.5 32.0565 30.8687 31.4001 31.5251C30.7437 32.1815 30.375 33.0717 30.375 34H33.875ZM30.375 20C30.375 20.9283 30.7437 21.8185 31.4001 22.4749C32.0565 23.1312 32.9467 23.5 33.875 23.5V20H30.375ZM4.125 34H7.625C7.625 33.0717 7.25625 32.1815 6.59987 31.5251C5.9435 30.8687 5.05326 30.5 4.125 30.5V34Z" fill="white"/>
</svg>
