<svg width="35" height="41" viewBox="0 0 35 41" fill="none" xmlns="http://www.w3.org/2000/svg">
<path d="M10 0C11.3828 0 12.5 1.14512 12.5 2.5625V5.125H22.5V2.5625C22.5 1.14512 23.6172 0 25 0C26.3828 0 27.5 1.14512 27.5 2.5625V5.125H31.25C33.3203 5.125 35 6.84668 35 8.96875V12.8125H0V8.96875C0 6.84668 1.67969 5.125 3.75 5.125H7.5V2.5625C7.5 1.14512 8.61719 0 10 0ZM0 15.375H35V37.1562C35 39.2783 33.3203 41 31.25 41H3.75C1.67969 41 0 39.2783 0 37.1562V15.375ZM5 21.7812V24.3438C5 25.0484 5.5625 25.625 6.25 25.625H8.75C9.4375 25.625 10 25.0484 10 24.3438V21.7812C10 21.0766 9.4375 20.5 8.75 20.5H6.25C5.5625 20.5 5 21.0766 5 21.7812ZM15 21.7812V24.3438C15 25.0484 15.5625 25.625 16.25 25.625H18.75C19.4375 25.625 20 25.0484 20 24.3438V21.7812C20 21.0766 19.4375 20.5 18.75 20.5H16.25C15.5625 20.5 15 21.0766 15 21.7812ZM26.25 20.5C25.5625 20.5 25 21.0766 25 21.7812V24.3438C25 25.0484 25.5625 25.625 26.25 25.625H28.75C29.4375 25.625 30 25.0484 30 24.3438V21.7812C30 21.0766 29.4375 20.5 28.75 20.5H26.25ZM5 32.0312V34.5938C5 35.2984 5.5625 35.875 6.25 35.875H8.75C9.4375 35.875 10 35.2984 10 34.5938V32.0312C10 31.3266 9.4375 30.75 8.75 30.75H6.25C5.5625 30.75 5 31.3266 5 32.0312ZM16.25 30.75C15.5625 30.75 15 31.3266 15 32.0312V34.5938C15 35.2984 15.5625 35.875 16.25 35.875H18.75C19.4375 35.875 20 35.2984 20 34.5938V32.0312C20 31.3266 19.4375 30.75 18.75 30.75H16.25ZM25 32.0312V34.5938C25 35.2984 25.5625 35.875 26.25 35.875H28.75C29.4375 35.875 30 35.2984 30 34.5938V32.0312C30 31.3266 29.4375 30.75 28.75 30.75H26.25C25.5625 30.75 25 31.3266 25 32.0312Z" fill="white"/>
</svg>
