<svg width="30" height="30" viewBox="0 0 30 30" fill="none" xmlns="http://www.w3.org/2000/svg">
<path d="M10.5819 0.823168C7.54082 1.87523 4.91818 3.87208 3.09922 6.52042C1.28026 9.16875 0.360866 12.329 0.476076 15.5369C0.591286 18.7448 1.73503 21.8314 3.73931 24.3431C5.74359 26.8549 8.50276 28.6596 11.6115 29.492C14.1319 30.1405 16.7725 30.169 19.3063 29.575C21.6017 29.0608 23.7239 27.961 25.465 26.3832C27.2771 24.691 28.5925 22.5381 29.2696 20.1562C30.0054 17.566 30.1363 14.8421 29.6524 12.1935H15.4994V18.0482H23.6959C23.5321 18.982 23.181 19.8732 22.6638 20.6685C22.1465 21.4639 21.4737 22.1469 20.6855 22.6769C19.6847 23.3374 18.5564 23.7817 17.3731 23.9811C16.1864 24.2012 14.9692 24.2012 13.7825 23.9811C12.5797 23.7334 11.4419 23.2383 10.4416 22.5275C8.83454 21.3931 7.62784 19.7814 6.99372 17.9225C6.34905 16.0287 6.34905 13.9758 6.99372 12.082C7.4451 10.7546 8.19129 9.54602 9.1766 8.54644C10.3042 7.38154 11.7317 6.54886 13.3026 6.13977C14.8735 5.73067 16.527 5.76096 18.0817 6.22732C19.2963 6.59896 20.407 7.24858 21.3251 8.12435C22.2493 7.20745 23.172 6.28819 24.093 5.36655C24.5686 4.87095 25.0869 4.39906 25.5554 3.89161C24.1537 2.591 22.5085 1.57891 20.714 0.913277C17.4461 -0.270017 13.8705 -0.301817 10.5819 0.823168Z" fill="white"/>
<path d="M10.5809 0.822307C13.8691 -0.303444 17.4448 -0.272481 20.713 0.910044C22.5078 1.58019 24.1522 2.59716 25.5519 3.9026C25.0764 4.41006 24.5746 4.88431 24.0895 5.37754C23.1669 6.29602 22.2451 7.21133 21.3241 8.12349C20.406 7.24772 19.2953 6.5981 18.0807 6.22646C16.5264 5.75847 14.873 5.72642 13.3017 6.13384C11.7304 6.54127 10.302 7.37241 9.17317 8.53609C8.18786 9.53567 7.44166 10.7443 6.99028 12.0717L2.06096 8.26576C3.82536 4.77657 6.8803 2.1076 10.5809 0.822307Z" fill="#E33629"/>
<path d="M0.753177 12.0361C1.01793 10.7266 1.4578 9.45849 2.06101 8.26575L6.99033 12.0811C6.34566 13.9749 6.34566 16.0279 6.99033 17.9216C5.34801 19.1863 3.70491 20.4573 2.06101 21.7346C0.551417 18.7381 0.0910182 15.3239 0.753177 12.0361Z" fill="#F8BD00"/>
<path d="M15.499 12.1915H29.6521C30.136 14.8401 30.005 17.564 29.2693 20.1543C28.5921 22.5362 27.2768 24.689 25.4647 26.3813C23.8739 25.1435 22.276 23.9152 20.6852 22.6773C21.4738 22.1468 22.147 21.463 22.6643 20.6668C23.1816 19.8706 23.5323 18.9785 23.6955 18.0439H15.499C15.4966 16.0947 15.499 14.1431 15.499 12.1915Z" fill="#587DBD"/>
<path d="M2.05893 21.7346C3.70283 20.4699 5.34594 19.1989 6.98825 17.9216C7.62364 19.7811 8.83207 21.3929 10.4409 22.5266C11.4443 23.2341 12.5846 23.7252 13.789 23.9683C14.9756 24.1884 16.1929 24.1884 17.3795 23.9683C18.5628 23.7689 19.6912 23.3246 20.6919 22.6641C22.2827 23.9019 23.8806 25.1303 25.4714 26.3681C23.7306 27.9467 21.6084 29.0473 19.3128 29.5622C16.7789 30.1562 14.1383 30.1277 11.618 29.4792C9.6246 28.9484 7.76267 28.0128 6.14887 26.7309C4.44091 25.3784 3.04583 23.6741 2.05893 21.7346Z" fill="#319F43"/>
</svg>
