<svg width="28" height="32" viewBox="0 0 28 32" fill="none" xmlns="http://www.w3.org/2000/svg">
<path d="M22.94 17.0007C22.9865 21.8431 27.3546 23.4548 27.4028 23.4754C27.3659 23.5887 26.705 25.772 25.1018 28.0265C23.7159 29.9759 22.2773 31.918 20.0116 31.9587C17.7853 31.9979 17.0693 30.6878 14.5237 30.6878C11.9789 30.6878 11.1837 31.918 9.07591 31.9979C6.88866 32.0777 5.22307 29.8896 3.82566 27.9477C0.970358 23.9748 -1.2118 16.7212 1.71818 11.8249C3.17366 9.39335 5.77523 7.85381 8.59869 7.81414C10.7463 7.77473 12.7735 9.20455 14.0863 9.20455C15.3984 9.20455 17.8618 7.48496 20.4516 7.73738C21.5359 7.78092 24.5791 8.15878 26.5332 10.9118C26.3761 11.0058 22.9022 12.952 22.94 17.0007ZM18.7558 5.10932C19.9169 3.75677 20.6984 1.87336 20.4853 0C18.8115 0.0646521 16.7875 1.07333 15.5871 2.42535C14.5111 3.62232 13.569 5.5387 13.823 7.37497C15.6888 7.51406 17.5944 6.46263 18.7558 5.10932Z" fill="white" fill-opacity="0.8"/>
</svg>
