<svg width="24" height="24" viewBox="0 0 24 24" fill="none" xmlns="http://www.w3.org/2000/svg">
<path d="M20.6494 9.37518L19.2494 7.97518L19.9994 7.20018L16.7994 4.00018L16.0244 4.75018L14.5994 3.32518L15.3494 2.55018C15.7327 2.16685 16.2077 1.97918 16.7744 1.98718C17.3411 1.99518 17.8161 2.19118 18.1994 2.57518L21.4244 5.80018C21.8077 6.18352 21.9994 6.65418 21.9994 7.21218C21.9994 7.77018 21.8077 8.24118 21.4244 8.62518L20.6494 9.37518ZM8.64941 21.4002C8.26608 21.7835 7.79541 21.9752 7.23741 21.9752C6.67941 21.9752 6.20841 21.7835 5.82441 21.4002L2.59941 18.1752C2.21608 17.7919 2.02441 17.3212 2.02441 16.7632C2.02441 16.2052 2.21608 15.7342 2.59941 15.3502L3.34941 14.6002L4.77441 16.0252L3.99941 16.7752L7.22441 20.0002L7.97441 19.2252L9.39941 20.6502L8.64941 21.4002ZM18.5744 13.0002L19.9994 11.5752L12.4244 4.00018L10.9994 5.42518L18.5744 13.0002ZM11.5744 20.0002L12.9994 18.5502L5.44941 11.0002L3.99941 12.4252L11.5744 20.0002ZM11.4244 14.1502L14.1744 11.4252L12.5744 9.82518L9.84942 12.5752L11.4244 14.1502ZM12.9994 21.4002C12.6161 21.7835 12.1411 21.9752 11.5744 21.9752C11.0077 21.9752 10.5327 21.7835 10.1494 21.4002L2.59941 13.8502C2.21608 13.4669 2.02441 12.9919 2.02441 12.4252C2.02441 11.8585 2.21608 11.3835 2.59941 11.0002L4.02441 9.57518C4.40775 9.19185 4.87841 9.00018 5.43641 9.00018C5.99441 9.00018 6.46541 9.19185 6.84941 9.57518L8.42442 11.1502L11.1744 8.40018L9.59942 6.85018C9.21608 6.46685 9.02441 5.99185 9.02441 5.42518C9.02441 4.85852 9.21608 4.38352 9.59942 4.00018L11.0244 2.57518C11.4077 2.19185 11.8787 2.00018 12.4374 2.00018C12.9961 2.00018 13.4667 2.19185 13.8494 2.57518L21.4244 10.1502C21.8077 10.5335 21.9994 11.0042 21.9994 11.5622C21.9994 12.1202 21.8077 12.5912 21.4244 12.9752L19.9994 14.4002C19.6161 14.7835 19.1411 14.9752 18.5744 14.9752C18.0078 14.9752 17.5327 14.7835 17.1494 14.4002L15.5994 12.8252L12.8494 15.5752L14.4244 17.1502C14.8077 17.5335 14.9994 18.0045 14.9994 18.5632C14.9994 19.1219 14.8077 19.5925 14.4244 19.9752L12.9994 21.4002Z" fill="url(#paint0_linear_136_1644)"/>
<defs>
<linearGradient id="paint0_linear_136_1644" x1="12.0119" y1="1.98694" x2="12.0119" y2="21.9752" gradientUnits="userSpaceOnUse">
<stop stop-color="#D93732"/>
<stop offset="1" stop-color="#D93731"/>
</linearGradient>
</defs>
</svg>
