<svg width="14" height="20" viewBox="0 0 14 20" fill="none" xmlns="http://www.w3.org/2000/svg">
<path d="M10.3127 6.16711C6.23904 3.46373 8.08255 0.833328 8.08255 0.833328C4.12237 3.11353 3.24571 6.5938 4.21583 10.9941C2.78901 9.83721 2.58233 8.46718 2.62906 6.66041C0.812284 8.60386 0.485598 10.6606 0.605605 12.8876C0.720475 15.1763 2.01242 17.2421 4.02004 18.3474C6.02748 19.4523 8.46412 19.4389 10.4597 18.3116C12.4548 17.1842 13.724 15.104 13.8133 12.8141C13.9532 9.90396 12.7199 7.76377 10.313 6.16725L10.3127 6.16711ZM7.64585 17.6345C6.73598 17.6377 5.84586 17.3696 5.08921 16.8643C5.26919 16.882 5.44917 16.891 5.62914 16.891C7.18942 16.8841 8.68361 16.2599 9.78535 15.1552C10.8871 14.0503 11.507 12.5544 11.5096 10.9941C11.5096 10.8142 11.5007 10.6342 11.4828 10.4542V10.454C11.9886 11.2048 12.26 12.0889 12.2629 12.9941C12.2646 14.2231 11.7781 15.4024 10.9105 16.2725C10.0427 17.1429 8.86474 17.6329 7.6358 17.6345H7.64585Z" fill="white"/>
</svg>
