<svg width="13" height="10" viewBox="0 0 13 10" fill="none" xmlns="http://www.w3.org/2000/svg">
<path fill-rule="evenodd" clip-rule="evenodd" d="M0 5C0 6.025 0.265625 6.36937 0.796875 7.06C1.8575 8.4375 3.63625 10 6.25 10C8.86375 10 10.6425 8.4375 11.7031 7.06C12.2344 6.37 12.5 6.02437 12.5 5C12.5 3.975 12.2344 3.63063 11.7031 2.94C10.6425 1.5625 8.86375 0 6.25 0C3.63625 0 1.8575 1.5625 0.796875 2.94C0.265625 3.63125 0 3.97563 0 5ZM6.25 2.65625C5.6284 2.65625 5.03226 2.90318 4.59272 3.34272C4.15318 3.78226 3.90625 4.3784 3.90625 5C3.90625 5.6216 4.15318 6.21774 4.59272 6.65728C5.03226 7.09682 5.6284 7.34375 6.25 7.34375C6.8716 7.34375 7.46774 7.09682 7.90728 6.65728C8.34682 6.21774 8.59375 5.6216 8.59375 5C8.59375 4.3784 8.34682 3.78226 7.90728 3.34272C7.46774 2.90318 6.8716 2.65625 6.25 2.65625Z" fill="url(#paint0_linear_130_1431)"/>
<defs>
<linearGradient id="paint0_linear_130_1431" x1="6.25" y1="0" x2="6.25" y2="10" gradientUnits="userSpaceOnUse">
<stop stop-color="#D93732"/>
<stop offset="1" stop-color="#D93731"/>
</linearGradient>
</defs>
</svg>
