<svg width="36" height="39" viewBox="0 0 36 39" fill="none" xmlns="http://www.w3.org/2000/svg">
<path d="M1.57782 38.6667C1.24648 38.6667 0.968816 38.5547 0.744816 38.3307C0.520816 38.1067 0.409593 37.829 0.411149 37.4977C0.412704 37.1663 0.523927 36.8894 0.744816 36.667C0.965705 36.4446 1.24337 36.3333 1.57782 36.3333H3.99982V3.93734C3.99982 2.89978 4.36926 2.01234 5.10815 1.275C5.84704 0.537671 6.7337 0.168227 7.76815 0.166672H28.2315C29.2675 0.166672 30.1541 0.536116 30.8915 1.275C31.6288 2.01389 31.9983 2.90056 31.9998 3.935V36.3333H34.4241C34.7539 36.3333 35.0308 36.4453 35.2548 36.6693C35.4788 36.8933 35.59 37.171 35.5885 37.5023C35.5869 37.8337 35.4757 38.1106 35.2548 38.333C35.0339 38.5555 34.7563 38.6667 34.4218 38.6667H1.57782ZM29.6665 36.3333V3.93734C29.6665 3.51734 29.5319 3.17278 29.2628 2.90367C28.9937 2.63456 28.6499 2.50001 28.2315 2.50001H19.9738V1.37067C21.4158 1.53089 22.6136 2.15 23.5671 3.228C24.5207 4.306 24.9983 5.56212 24.9998 6.99634V33.391C24.9998 34.3306 24.6755 35.1651 24.0268 35.8947C23.3781 36.6242 22.5794 37.0411 21.6305 37.1453V36.3333H29.6665ZM15.6898 21.7967C16.186 21.7967 16.6053 21.6178 16.9475 21.26C17.2897 20.9022 17.4608 20.4744 17.4608 19.9767C17.4608 19.4789 17.2889 19.0597 16.9451 18.719C16.6014 18.3783 16.1751 18.2072 15.6665 18.2057C15.1843 18.2057 14.7643 18.3776 14.4065 18.7213C14.0487 19.0651 13.8698 19.4913 13.8698 20C13.8698 20.4822 14.0487 20.9022 14.4065 21.26C14.7643 21.6178 15.192 21.7967 15.6898 21.7967Z" fill="white"/>
</svg>
