<svg width="12" height="14" viewBox="0 0 12 14" fill="none" xmlns="http://www.w3.org/2000/svg">
<path d="M11.3431 3.33734H0.676432V12.9527C0.676432 13.3467 0.975099 13.6667 1.3431 13.6667H10.6764C11.0444 13.6667 11.3431 13.3467 11.3431 12.9527C11.3431 10.3493 11.3431 3.33734 11.3431 3.33734ZM7.50977 5.00001C7.78577 5.00001 8.00977 5.22401 8.00977 5.50001V11.1667C8.00977 11.4427 7.78577 11.6667 7.50977 11.6667C7.23377 11.6667 7.00977 11.4427 7.00977 11.1667V5.50001C7.00977 5.22401 7.23377 5.00001 7.50977 5.00001ZM4.50977 5.00001C4.78577 5.00001 5.00977 5.22401 5.00977 5.50001V11.1667C5.00977 11.4427 4.78577 11.6667 4.50977 11.6667C4.23377 11.6667 4.00977 11.4427 4.00977 11.1667V5.50001C4.00977 5.22401 4.23377 5.00001 4.50977 5.00001ZM4.00977 1.66668V1.00001C4.00977 0.643344 4.32577 0.333344 4.67643 0.333344H7.3431C7.69377 0.333344 8.00977 0.643344 8.00977 1.00001V1.66668H11.5124C11.7871 1.66668 12.0098 1.89001 12.0098 2.16468C12.0098 2.43934 11.7871 2.66268 11.5124 2.66268H0.507766C0.232432 2.66268 0.00976562 2.43934 0.00976562 2.16468C0.00976562 1.89001 0.232432 1.66668 0.507766 1.66668H4.00977ZM7.00977 1.66668V1.33334H5.00977V1.66668H7.00977Z" fill="url(#paint0_linear_283_129)"/>
<defs>
<linearGradient id="paint0_linear_283_129" x1="6.00977" y1="0.333344" x2="6.00977" y2="13.6667" gradientUnits="userSpaceOnUse">
<stop stop-color="#D93732"/>
<stop offset="1" stop-color="#D93731"/>
</linearGradient>
</defs>
</svg>
