<svg width="14" height="18" viewBox="0 0 14 18" fill="none" xmlns="http://www.w3.org/2000/svg">
<path d="M11.59 6.21876H10V1.21387C10 0.66333 9.55 0.212891 9 0.212891H5C4.45 0.212891 4 0.66333 4 1.21387V6.21876H2.41C1.52 6.21876 1.07 7.29981 1.7 7.93043L6.29 12.5249C6.68 12.9153 7.31 12.9153 7.7 12.5249L12.29 7.93043C12.92 7.29981 12.48 6.21876 11.59 6.21876ZM0 16.2285C0 16.7791 0.45 17.2295 1 17.2295H13C13.55 17.2295 14 16.7791 14 16.2285C14 15.678 13.55 15.2276 13 15.2276H1C0.45 15.2276 0 15.678 0 16.2285Z" fill="url(#paint0_linear_175_1398)"/>
<defs>
<linearGradient id="paint0_linear_175_1398" x1="7" y1="0.212891" x2="7" y2="17.2295" gradientUnits="userSpaceOnUse">
<stop stop-color="#D93732"/>
<stop offset="1" stop-color="#D93731"/>
</linearGradient>
</defs>
</svg>
