<svg width="16" height="16" viewBox="0 0 16 16" fill="none" xmlns="http://www.w3.org/2000/svg">
<path d="M2.98764 10.4393C2.09831 13.05 2.00098 13.2607 2.00098 13.4973C2.00098 13.8493 2.30764 13.9967 2.50031 13.9967C2.73498 13.9967 2.94564 13.9053 5.54964 13.002L2.98764 10.4393ZM3.69431 9.73201L6.25831 12.296L13.8056 4.75534C13.9356 4.62534 14.001 4.45534 14.001 4.28401C14.001 4.11401 13.9356 3.94401 13.8056 3.81334C13.3443 3.35267 12.6443 2.65334 12.1823 2.19201C12.0523 2.06201 11.8816 1.99667 11.711 1.99667C11.5416 1.99667 11.371 2.06201 11.2403 2.19201L3.69431 9.73201Z" fill="url(#paint0_linear_283_111)"/>
<defs>
<linearGradient id="paint0_linear_283_111" x1="8.00098" y1="1.99667" x2="8.00098" y2="13.9967" gradientUnits="userSpaceOnUse">
<stop stop-color="#D93732"/>
<stop offset="1" stop-color="#D93731"/>
</linearGradient>
</defs>
</svg>
